<svg xmlns="http://www.w3.org/2000/svg" width="48" height="48" data-name="Layer 1" viewBox="0 0 48 48"><path d="M36.88,24a6.47,6.47,0,0,1-6.4-6.47A6.47,6.47,0,0,1,24,11.12a6.65,6.65,0,0,0-4,.65l-3.5,1.78a6.65,6.65,0,0,0-2.92,2.92L11.77,20a6.77,6.77,0,0,0-.65,4.1l.61,3.86a6.7,6.7,0,0,0,1.89,3.69l2.77,2.78a6.71,6.71,0,0,0,3.68,1.87l3.88.62A6.69,6.69,0,0,0,28,36.23l3.5-1.78a6.67,6.67,0,0,0,2.92-2.93L36.23,28A6.68,6.68,0,0,0,36.88,24ZM20,29.67a1.62,1.62,0,1,1,1.62-1.62A1.63,1.63,0,0,1,20,29.67Zm1.62-8.1A1.62,1.62,0,1,1,23.19,20,1.63,1.63,0,0,1,21.57,21.57Zm8.1,6.48a1.62,1.62,0,1,1,1.62-1.62A1.63,1.63,0,0,1,29.67,28.05Z"/></svg>