<svg xmlns="http://www.w3.org/2000/svg" id="Layer_1" enable-background="new 0 0 64 64" viewBox="0 0 64 64"><path d="M23.18 6.53c.36-1.06.74-2.04 1.17-2.99l.12-.26-.23-.17c-.85-.63-1.75-1.17-2.67-1.59l-.73-.33 1.98 6.38L23.18 6.53zM20.6 5.97l-1.66-5.38-.2-.05c-1.15-.27-2.33-.41-3.52-.42-.1 0-.19.01-.29.01-.08.01-.16.01-.24.01h-.86L20 6.32 20.6 5.97zM10.96 3.13c.03.11.09.21.16.29l6.17 6.17.25-.29c.44-.51.86-.9 1.3-1.24l.32-.25-7.63-7.63C11.4.06 11.26 0 11.11 0c-.09 0-.19.02-.29.08-.25.14-.37.4-.3.64L10.96 3.13zM7.34 22.83l-6.21-1.91.34.73c.44.94.96 1.81 1.54 2.6l.17.23.26-.12c.94-.43 1.91-.82 2.88-1.16L7.34 22.83zM7.97 20.6l-1.11-1.13c-.52-.52-.76-1.25-.63-1.96.07-.41.25-.78.53-1.11l.22-.25-6.01-6-.18.56c-.83 2.6-.93 5.39-.3 8.07l.05.2 7.09 2.2L7.97 20.6zM8.53 15.38l.22-.08c.86-.33 1.81-.59 2.81-.75l.82-.14L5.21 9.03C5.13 8.97 5.04 8.9 4.96 8.82L2.52 6.37c-.1-.13-.26-.21-.41-.21 0 0-1.33-.08-1.33-.08L.69 6.05H.64c-.17 0-.4.09-.52.35C0 6.64.05 6.89.23 7.08L8.53 15.38zM14.94 14.27l.15-.47c.32-.95.68-1.79 1.11-2.58l.13-.23L9.96 4.6C9.63 4.28 9.41 3.86 9.32 3.41L8.96 1.47 8.54 1.68c-1.5.73-2.85 1.7-4.05 2.88L3.81 5.3l2.36 2.39L14.94 14.27zM22.09 10.76l-.71-2.28-.37.18c-1.93.96-3.3 2.73-4.31 5.59l-.13.38.39.09c1.47.34 2.8.84 4.08 1.53l.51.28.01-.58c.03-1.68.21-3.39.52-5.09L22.09 10.76zM21.63 18.55l-.15-.1c-2.02-1.31-4.07-2.1-6.07-2.34-.53-.07-1.08-.1-1.61-.1-2.11 0-3.85.54-5.06 1.08H8.69l-.47.22c-.19.08-.32.25-.36.46-.03.19.03.38.17.52l3.55 3.55.18-.03c1.6-.25 3.23-.38 4.85-.38 1.65 0 3.31.13 4.93.39l.48.08-.08-.48c-.15-.96-.25-1.84-.3-2.69L21.63 18.55zM52.98 47.96c-1.64 0-3.3-.13-4.93-.39l-.48-.08.08.48c.62 3.94.5 7.88-.35 11.72l-.27 1.19 13.96-13.96-1.2.27C57.55 47.71 55.26 47.96 52.98 47.96zM63.44 42.04L25.78 4.38l-.21.48c-2.3 5.43-2.94 11.36-1.84 17.17l.04.23L24 22.32c5.61 1.35 10.74 4.23 14.85 8.34 4.06 4.06 6.93 9.2 8.3 14.85l.05.22.23.04c1.84.35 3.72.52 5.58.52 3.57 0 7.08-.64 10.43-1.89l.1-.04.06-.09c.23-.33.35-.67.35-1.01C63.95 42.8 63.77 42.37 63.44 42.04z"/><path d="M16.63,23.1c-4.11,0-8.11,0.83-11.89,2.48l-0.48,0.21L41.99,63.5c0.32,0.32,0.75,0.5,1.21,0.5c0.43,0,0.85-0.16,1.17-0.45
		l0.07-0.06l0.03-0.08c4.12-10.94,1.45-23.33-6.81-31.59C32.04,26.2,24.57,23.1,16.63,23.1z"/></svg>