<svg xmlns="http://www.w3.org/2000/svg" width="100" height="100" enable-background="new 0 0 100 100" viewBox="0 0 100 100"><path d="M54.989 8.068h-9.979c-.861 0-1.56-.688-1.56-1.534S44.149 5 45.011 5h9.979c.861 0 1.56.688 1.56 1.534S55.851 8.068 54.989 8.068zM61.397 61.377C62.555 57.349 63 52.883 63 43.863c0-9.018-2.137-8.88-5.61-18.512-2.047-5.679-2.67-11.734-2.837-15.749h-9.105c-.167 4.015-.79 10.07-2.837 15.749C39.137 34.983 37 34.846 37 43.863c0 9.02.445 13.485 1.604 17.514 1.157 4.027 1.246 12.696 1.246 16.461 0 3.766-2.85 6.918-2.85 10.332 0 3.416 1.692 6.83 3.829 6.83 2.137 0 16.206 0 18.343 0C61.308 95 63 91.586 63 88.17c0-3.414-2.85-6.566-2.85-10.332C60.15 74.073 60.24 65.404 61.397 61.377z"/></svg>